<svg viewBox="0 0 200 220" xmlns="http://www.w3.org/2000/svg">
  <rect width="200" height="220" fill="white" rx="16"/>
  <circle cx="100" cy="130" r="68" fill="#D6F5E3" stroke="#5CC47E" stroke-width="3"/>
  <rect x="58" y="68" width="84" height="11" rx="2" fill="#4A7C59"/>
  <polygon points="100,54 134,68 100,68 66,68" fill="#4A7C59"/>
  <line x1="134" y1="68" x2="140" y2="86" stroke="#4A7C59" stroke-width="3" stroke-linecap="round"/>
  <circle cx="140" cy="91" r="6" fill="#F5C842"/>
  <path d="M72,114 Q84,107 96,114" stroke="#5A4A3A" stroke-width="2.5" fill="none" stroke-linecap="round"/>
  <path d="M104,114 Q116,107 128,114" stroke="#5A4A3A" stroke-width="2.5" fill="none" stroke-linecap="round"/>
  <ellipse cx="84" cy="126" rx="11" ry="10" fill="white" stroke="#333" stroke-width="2"/>
  <ellipse cx="116" cy="126" rx="11" ry="10" fill="white" stroke="#333" stroke-width="2"/>
  <circle cx="85" cy="128" r="5.5" fill="#333"/>
  <circle cx="117" cy="128" r="5.5" fill="#333"/>
  <circle cx="87" cy="126" r="2" fill="white"/>
  <circle cx="119" cy="126" r="2" fill="white"/>
  <path d="M82,146 Q100,158 118,146" stroke="#333" stroke-width="2.5" fill="none" stroke-linecap="round"/>
  <ellipse cx="68" cy="146" rx="12" ry="7" fill="#FFB3C1" opacity="0.55"/>
  <ellipse cx="132" cy="146" rx="12" ry="7" fill="#FFB3C1" opacity="0.55"/>
</svg>
