<svg viewBox="0 0 200 220" xmlns="http://www.w3.org/2000/svg">
  <rect width="200" height="220" fill="white" rx="16"/>
  <circle cx="100" cy="130" r="82" fill="none" stroke="#F5C842" stroke-width="1.5" opacity="0.4"/>
  <circle cx="100" cy="130" r="73" fill="none" stroke="#F5A623" stroke-width="1" opacity="0.25"/>
  <circle cx="100" cy="130" r="62" fill="#FFE3C8" stroke="#E86A2A" stroke-width="3"/>
  <polygon points="100,60 84,72 70,54 64,76 100,67 136,76 130,54 116,72" fill="#F5C842" stroke="#C8A000" stroke-width="2"/>
  <circle cx="100" cy="62" r="6" fill="#E86A2A"/>
  <circle cx="82" cy="72" r="4.5" fill="#5A8FDB"/>
  <circle cx="118" cy="72" r="4.5" fill="#5CC47E"/>
  <path d="M56,112 Q72,100 88,108" stroke="#BBBBBB" stroke-width="5.5" fill="none" stroke-linecap="round"/>
  <path d="M112,108 Q128,100 144,112" stroke="#BBBBBB" stroke-width="5.5" fill="none" stroke-linecap="round"/>
  <ellipse cx="78" cy="124" rx="12" ry="10" fill="white" stroke="#333" stroke-width="2"/>
  <ellipse cx="122" cy="124" rx="12" ry="10" fill="white" stroke="#333" stroke-width="2"/>
  <circle cx="78" cy="126" r="6" fill="#1A4A8A"/>
  <circle cx="122" cy="126" r="6" fill="#1A4A8A"/>
  <circle cx="80" cy="124" r="2.2" fill="white"/>
  <circle cx="124" cy="124" r="2.2" fill="white"/>
  <path d="M74,148 Q100,164 126,148" stroke="#555" stroke-width="3" fill="none" stroke-linecap="round"/>
  <ellipse cx="100" cy="178" rx="30" ry="15" fill="#E8E0D8" stroke="#C8BFB0" stroke-width="1.5"/>
  <path d="M74,166 Q100,184 126,166" fill="#E8E0D8" stroke="#C8BFB0" stroke-width="1.5"/>
  <text x="28" y="104" font-size="18" fill="#F5C842" font-family="Arial">✦</text>
  <text x="152" y="104" font-size="18" fill="#F5C842" font-family="Arial">✦</text>
  <text x="36" y="164" font-size="12" fill="#F5A623" font-family="Arial">✧</text>
  <text x="152" y="164" font-size="12" fill="#F5A623" font-family="Arial">✧</text>
</svg>
